<svg width="80" height="80" viewBox="0 0 80 80" fill="none" xmlns="http://www.w3.org/2000/svg">
<g clip-path="url(#clip0)">
<path d="M78.4918 36.4355L43.5626 1.50889C41.5525 -0.502964 38.2898 -0.502964 36.2771 1.50889L29.024 8.76193L38.2249 17.9627C40.3631 17.2403 42.8147 17.7249 44.5194 19.4295C46.2319 21.1447 46.7129 23.6174 45.973 25.7626L54.8402 34.6299C56.9855 33.8908 59.4608 34.3692 61.1742 36.0852C63.5688 38.4789 63.5688 42.3587 61.1742 44.7541C58.7788 47.1496 54.899 47.1496 52.5027 44.7541C50.7015 42.9512 50.2565 40.3056 51.1685 38.0866L42.899 29.8171L42.8981 51.5788C43.4818 51.8685 44.0331 52.2538 44.5194 52.7383C46.9139 55.132 46.9139 59.0118 44.5194 61.409C42.1239 63.8036 38.2424 63.8036 35.8505 61.409C33.4559 59.0118 33.4559 55.132 35.8505 52.7383C36.4421 52.1476 37.1268 51.7008 37.8571 51.4006V29.4361C37.1268 29.1377 36.443 28.6935 35.8505 28.0984C34.0361 26.2867 33.5999 23.6244 34.5294 21.3966L25.4603 12.3257L1.51025 36.274C-0.502481 38.2876 -0.502481 41.5503 1.51025 43.5621L36.4395 78.4896C38.4504 80.5014 41.7122 80.5014 43.7259 78.4896L78.4918 43.7245C80.5037 41.7118 80.5037 38.4473 78.4918 36.4355Z" fill="#6600CC"/>
</g>
<defs>
<clipPath id="clip0">
<rect width="80" height="80" fill="white"/>
</clipPath>
</defs>
</svg>
