<svg width="80" height="80" viewBox="0 0 80 80" fill="none" xmlns="http://www.w3.org/2000/svg">
<path d="M0 0H80V80H0V0Z" fill="#6600CC"/>
<path d="M21.035 66.8538L27.1569 63.1488C28.3382 65.2429 29.4125 67.0147 31.9897 67.0147C34.46 67.0147 36.0179 66.0485 36.0179 62.2897V36.7279H43.5357V62.396C43.5357 70.1825 38.9713 73.7269 32.3119 73.7269C26.2979 73.7269 22.8069 70.6122 21.0347 66.8532L21.035 66.8538ZM47.6191 66.0482L53.7403 62.5041C55.3519 65.1357 57.4463 67.0688 61.1513 67.0688C64.2666 67.0688 66.2528 65.5113 66.2528 63.3632C66.2528 60.7857 64.2122 59.8725 60.7754 58.3694L58.8963 57.5632C53.4722 55.2547 49.8744 52.3547 49.8744 46.2329C49.8744 40.5941 54.1704 36.2979 60.8832 36.2979C65.6625 36.2979 69.0994 37.9628 71.5694 42.3125L65.7157 46.0719C64.4266 43.7628 63.031 42.85 60.8829 42.85C58.681 42.85 57.2847 44.2463 57.2847 46.0719C57.2847 48.3272 58.681 49.2407 61.9029 50.6369L63.7822 51.4422C70.1728 54.1813 73.7707 56.9735 73.7707 63.256C73.7707 70.0229 68.4544 73.7279 61.3122 73.7279C54.3313 73.7279 49.8204 70.3985 47.6188 66.0485" fill="#212121"/>
</svg>
