<svg width="90" height="55" viewBox="0 0 90 55" fill="none" xmlns="http://www.w3.org/2000/svg">
<g clip-path="url(#clip0)">
<path d="M21.2361 14.1611H38.211V15.5104H22.7921V25.6648H37.2916V27.0139H22.7921V38.1625H38.3878V39.5116H21.2361V14.1611ZM39.7318 14.1611H41.5354L49.5276 25.3097L57.6967 14.1609L68.808 0L50.5531 26.4814L59.96 39.5116H58.0857L49.5276 27.653L40.934 39.5116H39.0952L48.5728 26.4813L39.7317 14.1611H39.7318ZM60.6319 15.5104V14.1609H79.9762V15.5102H71.0643V39.5114H69.5083V15.5104H60.6319ZM0 14.1609H1.94502L28.7657 54.2958L17.6822 39.5114L1.62668 16.0784L1.55602 39.5118H0V14.1609ZM79.8195 37.755C79.5015 37.755 79.2631 37.5089 79.2631 37.1904C79.2631 36.8722 79.5015 36.6258 79.8195 36.6258C80.1411 36.6258 80.3758 36.8721 80.3758 37.1904C80.3758 37.5087 80.1411 37.755 79.8195 37.755ZM81.3484 36.2696H82.1811C82.1923 36.7205 82.5216 37.0238 83.006 37.0238C83.5472 37.0238 83.8538 36.6978 83.8538 36.0877V32.2223H84.7016V36.0914C84.7016 37.1904 84.0658 37.8234 83.0136 37.8234C82.0257 37.8234 81.3484 37.2094 81.3484 36.2695V36.2696ZM85.8104 36.2204H86.6507C86.7226 36.7395 87.2297 37.0691 87.9602 37.0691C88.6414 37.0691 89.141 36.7167 89.141 36.2317C89.141 35.8149 88.823 35.5648 88.1002 35.3943L87.3962 35.2238C86.4083 34.9924 85.9581 34.515 85.9581 33.7117C85.9581 32.7379 86.7528 32.0897 87.9449 32.0897C89.0538 32.0897 89.8638 32.7377 89.913 33.6586H89.0879C89.0084 33.1546 88.5693 32.84 87.9335 32.84C87.2638 32.84 86.8173 33.1622 86.8173 33.6547C86.8173 34.045 87.1047 34.2687 87.8163 34.4354L88.418 34.5832C89.5382 34.8448 90 35.2995 90 36.1218C90 37.1677 89.1902 37.8234 87.8959 37.8234C86.6848 37.8234 85.8709 37.1979 85.8104 36.2203V36.2204Z" fill="#6600CC"/>
</g>
<defs>
<clipPath id="clip0">
<rect width="90" height="54.3164" fill="white"/>
</clipPath>
</defs>
</svg>
