<svg width="130" height="65" viewBox="0 0 130 65" fill="none" xmlns="http://www.w3.org/2000/svg">
<path d="M115.683 27.4426C115.389 27.4426 115.103 27.5032 114.85 27.6463L106.849 32.267C106.331 32.5652 106.016 33.1288 106.016 33.728V42.9527C106.016 43.5518 106.331 44.1144 106.849 44.4135L108.938 45.6177C109.954 46.1182 110.328 46.1102 110.79 46.1102C112.293 46.1102 113.151 45.1981 113.151 43.6129V34.5121C113.151 34.3834 113.04 34.2914 112.914 34.2914H111.911C111.783 34.2914 111.674 34.3858 111.674 34.5121V43.6176C111.674 44.3203 110.942 45.0272 109.754 44.4331L107.582 43.1591C107.505 43.1173 107.446 43.0411 107.446 42.9553V33.7306C107.446 33.6432 107.504 33.554 107.582 33.5098L115.566 28.9057C115.641 28.8628 115.73 28.8628 115.804 28.9057L123.789 33.5098C123.865 33.5554 123.925 33.6404 123.925 33.7306V42.9553C123.925 43.0434 123.88 43.1336 123.806 43.1761L115.804 47.7802C115.733 47.8211 115.639 47.8211 115.567 47.7802L113.511 46.5572C113.45 46.5213 113.366 46.5241 113.307 46.5572C112.74 46.8788 112.633 46.9161 112.101 47.1007C111.97 47.1463 111.771 47.2173 112.169 47.4407L114.853 49.0226C115.109 49.1704 115.393 49.2434 115.686 49.2434C115.982 49.2434 116.263 49.1725 116.518 49.0226L124.52 44.4185C125.037 44.1172 125.352 43.5567 125.352 42.9577V33.733C125.352 33.1337 125.037 32.5713 124.52 32.2719L116.518 27.6513C116.268 27.5082 115.98 27.4475 115.686 27.4475L115.683 27.4426ZM117.823 34.0342C115.545 34.0342 114.188 35.0039 114.188 36.6163C114.188 38.3635 115.535 38.8461 117.721 39.0624C120.338 39.3186 120.542 39.7027 120.542 40.2177C120.542 41.1109 119.829 41.4917 118.146 41.4917C116.032 41.4917 115.567 40.9638 115.411 39.9098C115.393 39.7969 115.306 39.706 115.19 39.706H114.152C114.089 39.7074 114.029 39.7329 113.985 39.7772C113.941 39.8215 113.915 39.8812 113.914 39.9438C113.914 41.2903 114.646 42.8826 118.144 42.8826C120.676 42.8826 122.136 41.891 122.136 40.1475C122.136 38.424 120.956 37.9581 118.501 37.633C116.022 37.3024 115.783 37.1442 115.783 36.5627C115.783 36.0829 115.983 35.4412 117.821 35.4412C119.463 35.4412 120.07 35.7954 120.318 36.9022C120.34 37.0061 120.432 37.0911 120.539 37.0911H121.578C121.642 37.0911 121.704 37.0519 121.748 37.0061C121.792 36.9573 121.822 36.9022 121.816 36.8361C121.656 34.9298 120.384 34.0331 117.824 34.0331L117.823 34.0342Z" fill="#6600CC"/>
<path d="M68.6428 15.3498C68.5535 15.35 68.4657 15.3734 68.3881 15.4178C68.3109 15.463 68.2468 15.5274 68.2021 15.6049C68.1575 15.6824 68.1337 15.7701 68.1333 15.8596V28.8554C68.1333 28.9829 68.0738 29.0972 67.9633 29.1612C67.9092 29.1927 67.8476 29.2094 67.7849 29.2094C67.7223 29.2094 67.6607 29.1927 67.6066 29.1612L65.483 27.9381C65.3281 27.8485 65.1523 27.8013 64.9734 27.8013C64.7944 27.8013 64.6186 27.8485 64.4637 27.9381L55.987 32.8305C55.6701 33.0133 55.477 33.3651 55.477 33.7308V43.5158C55.4767 43.6949 55.5237 43.8709 55.6132 44.026C55.7027 44.181 55.8316 44.3098 55.9867 44.3991L64.4637 49.2918C64.6185 49.3816 64.7944 49.4289 64.9734 49.4289C65.1524 49.4289 65.3282 49.3816 65.483 49.2918L73.96 44.3991C74.1152 44.3098 74.244 44.181 74.3335 44.026C74.423 43.8709 74.47 43.6949 74.4697 43.5158V19.1212C74.4697 18.75 74.2672 18.4017 73.9432 18.2209L68.8978 15.4006C68.8185 15.3564 68.7307 15.3486 68.6428 15.3496V15.3498ZM14.1113 27.5641C13.9496 27.5708 13.7977 27.5989 13.6525 27.6831L5.17579 32.5755C5.0205 32.6647 4.89157 32.7934 4.80209 32.9486C4.7126 33.1037 4.66574 33.2797 4.66626 33.4588L4.6835 46.5909C4.6835 46.7737 4.77794 46.9432 4.9385 47.0324C5.09598 47.1269 5.29124 47.1269 5.44802 47.0324L10.4764 44.1444C10.7952 43.9555 11.0029 43.6259 11.0029 43.2613V37.1284C11.0029 36.7624 11.1954 36.4272 11.5129 36.2454L13.6535 35.0053C13.8082 34.9154 13.9841 34.8684 14.163 34.8693C14.342 34.8683 14.5181 34.9152 14.6728 35.0053L16.8124 36.2447C17.1295 36.4265 17.3219 36.7622 17.3219 37.1277V43.2604C17.3219 43.6254 17.5344 43.9569 17.8484 44.1434L22.8768 47.0315C23.035 47.1259 23.2298 47.1259 23.3863 47.0315C23.5422 46.9418 23.6413 46.7725 23.6413 46.59L23.6583 33.4583C23.6593 33.2792 23.6127 33.1029 23.5232 32.9477C23.4336 32.7925 23.3044 32.6639 23.1488 32.5751L14.6721 27.6829C14.5287 27.5989 14.3762 27.5705 14.2133 27.5639H14.1118L14.1113 27.5641ZM90.2855 27.6831C90.1065 27.6826 89.9306 27.7296 89.7757 27.8191L81.2987 32.7118C80.9823 32.8948 80.7887 33.2293 80.7887 33.5948V43.3799C80.7887 43.7477 80.996 44.0811 81.3152 44.2629L89.7242 49.0559C90.0347 49.233 90.4137 49.2464 90.7265 49.0724L95.8229 46.2353C95.9846 46.1456 96.094 45.978 96.0944 45.7938C96.0949 45.6097 95.9993 45.4439 95.8394 45.3523L87.3112 40.4597C87.1516 40.3685 87.0397 40.1841 87.0397 40.0009V36.9412C87.0397 36.7584 87.153 36.5908 87.3112 36.4997L89.9613 34.9706C90.119 34.8795 90.3126 34.8795 90.4713 34.9706L93.1225 36.4997C93.2002 36.5443 93.2646 36.6086 93.3093 36.6861C93.3541 36.7637 93.3775 36.8517 93.3773 36.9412V39.3535C93.3771 39.443 93.4005 39.531 93.4452 39.6086C93.49 39.6861 93.5544 39.7504 93.632 39.795C93.791 39.8866 93.9834 39.8871 94.142 39.795L99.2212 36.8397C99.5364 36.6564 99.7312 36.3209 99.7312 35.9566V33.5955C99.7312 33.4165 99.6841 33.2407 99.5946 33.0856C99.5052 32.9306 99.3764 32.8018 99.2214 32.7122L90.7955 27.8196C90.6406 27.7299 90.4647 27.683 90.2857 27.6836L90.2855 27.6831ZM64.9393 34.9883C64.9867 34.9881 65.0334 34.9997 65.0752 35.0221L67.9801 36.7039C68.0589 36.7495 68.1161 36.8338 68.1161 36.9247V40.2882C68.1161 40.3796 68.0594 40.4637 67.9801 40.509L65.0752 42.1908C64.9962 42.2357 64.8996 42.2357 64.8203 42.1908L61.9154 40.509C61.8363 40.4634 61.7794 40.3792 61.7794 40.2882V36.9242C61.7794 36.833 61.8366 36.7495 61.9154 36.7034L64.8203 35.0219C64.8599 34.999 64.8949 34.9881 64.9393 34.9881V34.9879V34.9883Z" fill="#404137"/>
<path d="M39.5765 27.6319C39.3975 27.6316 39.2216 27.6785 39.0665 27.7679L30.5895 32.6435C30.2727 32.8263 30.08 33.1783 30.08 33.5438V43.3288C30.0795 43.5079 30.1264 43.6839 30.2159 43.839C30.3054 43.994 30.4343 44.1227 30.5895 44.2119L39.0665 49.1045C39.2213 49.1944 39.3972 49.2417 39.5762 49.2417C39.7552 49.2417 39.931 49.1944 40.0858 49.1045L48.5628 44.2119C48.718 44.1225 48.8468 43.9938 48.9363 43.8387C49.0258 43.6836 49.0728 43.5077 49.0725 43.3286V33.5436C49.0725 33.1776 48.8799 32.8258 48.5626 32.6433L40.0856 27.7677C39.9307 27.6778 39.7546 27.6309 39.5756 27.6317L39.5765 27.6319ZM90.2689 36.3639C90.2352 36.3639 90.1976 36.3639 90.1669 36.3804L88.5361 37.3319C88.5058 37.3488 88.4803 37.3734 88.4624 37.4032C88.4445 37.433 88.4348 37.4669 88.4341 37.5017V39.3705C88.4341 39.4408 88.475 39.5051 88.5361 39.5405L90.1669 40.4748C90.195 40.4921 90.2273 40.5013 90.2602 40.5013C90.2932 40.5013 90.3255 40.4921 90.3535 40.4748L91.9843 39.5405C92.0447 39.5058 92.0863 39.4408 92.0863 39.3705V37.5017C92.0863 37.4313 92.0449 37.3671 91.9843 37.3317L90.3535 36.3802C90.3232 36.3622 90.3025 36.3636 90.2685 36.3636L90.2689 36.3639Z" fill="#6600CC"/>
</svg>
