<svg width="29" height="29" viewBox="0 0 29 29" fill="none" xmlns="http://www.w3.org/2000/svg">
<path d="M21 1H7.66667C3.98477 1 1 3.98477 1 7.66667V21C1 24.6819 3.98477 27.6667 7.66667 27.6667H21C24.6819 27.6667 27.6667 24.6819 27.6667 21V7.66667C27.6667 3.98477 24.6819 1 21 1Z" stroke="#6600CC" stroke-width="2" stroke-linecap="round" stroke-linejoin="round"/>
<path d="M19.6666 13.4934C19.8312 14.6031 19.6416 15.7364 19.1249 16.7321C18.6083 17.7278 17.7908 18.5353 16.7888 19.0396C15.7867 19.544 14.6512 19.7195 13.5436 19.5413C12.4361 19.3631 11.4129 18.8402 10.6197 18.047C9.82649 17.2537 9.30358 16.2306 9.12536 15.123C8.94714 14.0155 9.12269 12.8799 9.62704 11.8779C10.1314 10.8759 10.9388 10.0584 11.9346 9.54173C12.9303 9.02507 14.0636 8.83553 15.1733 9.00008C16.3052 9.16792 17.3531 9.69536 18.1622 10.5045C18.9713 11.3136 19.4988 12.3615 19.6666 13.4934Z" stroke="#6600CC" stroke-width="2" stroke-linecap="round" stroke-linejoin="round"/>
</svg>
