<svg width="30" height="28" viewBox="0 0 30 28" fill="none" xmlns="http://www.w3.org/2000/svg">
<path d="M3.65703 0C4.59115 0 5.32256 0.309019 5.85399 0.924183C6.38543 1.53935 6.67032 2.31549 6.70867 3.24542C6.70867 4.16385 6.41008 4.93856 5.80879 5.56809C5.20751 6.19619 4.3857 6.51096 3.34612 6.51096H3.30914C2.29421 6.51096 1.49021 6.19619 0.891659 5.56809C0.299959 4.93856 0 4.16385 0 3.24542C0 2.30111 0.325983 1.52497 0.983427 0.914122C1.64087 0.304707 2.5339 0 3.65703 0ZM0.393097 9.08947H6.80729V27.9986H0.393097V9.08947ZM30 17.157V27.9986H23.5872V17.8857C23.5872 16.5994 23.3352 15.5688 22.8339 14.784C22.3353 14.0065 21.5012 13.617 20.3232 13.617C19.4261 13.617 18.7057 13.8556 18.1687 14.3356C17.6305 14.8128 17.2401 15.3403 17.0045 15.9195C16.9278 16.1294 16.8799 16.3608 16.8539 16.618C16.8292 16.871 16.8182 17.1455 16.8182 17.4344V28H10.3657C10.3931 24.8006 10.4082 21.8656 10.4082 19.2037V15.8419V12.7876C10.4082 11.8577 10.3986 11.0643 10.3835 10.406C10.3753 9.7535 10.3657 9.31225 10.3657 9.08947H16.8182V11.7672L16.7826 11.8448H16.8182V11.7672C17.0182 11.438 17.2743 11.0945 17.5866 10.7337C17.903 10.3744 18.2811 10.0381 18.7413 9.72763C19.1974 9.42005 19.7466 9.16709 20.3904 8.96155C21.0382 8.75889 21.7751 8.65828 22.6147 8.65828C23.6584 8.65828 24.6336 8.82501 25.5431 9.1599C26.4498 9.49479 27.2291 10.0194 27.8921 10.7352C28.5509 11.4466 29.0673 12.332 29.4425 13.3899C29.8165 14.4448 30 15.701 30 17.157Z" fill="#6600CC"/>
</svg>
